HIERARCHY
ROOT Hips
{
  OFFSET 57.8838 95.319 338.509
  CHANNELS 6 Xposition Yposition Zposition Zrotation Xrotation Yrotation
  JOINT LeftUpLeg
  {
    OFFSET 8.64259 1.95398 -2.38835
    CHANNELS 3 Zrotation Xrotation Yrotation
    JOINT LeftLeg
    {
      OFFSET 43.7702 0 0
      CHANNELS 3 Zrotation Xrotation Yrotation
      JOINT LeftFoot
      {
        OFFSET 40.6238 0 0
        CHANNELS 3 Zrotation Xrotation Yrotation
        JOINT LeftToeBase
        {
          OFFSET 12.7242 0 0
          CHANNELS 3 Zrotation Xrotation Yrotation
          End Site
          {
            OFFSET 0 0 0
          }
        }
      }
    }
  }
  JOINT RightUpLeg
  {
    OFFSET -8.2249 1.95398 -2.59336
    CHANNELS 3 Zrotation Xrotation Yrotation
    JOINT RightLeg
    {
      OFFSET 43.5653 0 0
      CHANNELS 3 Zrotation Xrotation Yrotation
      JOINT RightFoot
      {
        OFFSET 40.6238 0 0
        CHANNELS 3 Zrotation Xrotation Yrotation
        JOINT RightToeBase
        {
          OFFSET 12.7242 0 0
          CHANNELS 3 Zrotation Xrotation Yrotation
          End Site
          {
            OFFSET 0 0 0
          }
        }
      }
    }
  }
  JOINT Spine
  {
    OFFSET 0.165834 0.87714 6.61349
    CHANNELS 3 Zrotation Xrotation Yrotation
    JOINT Spine1
    {
      OFFSET 7.38963 1.71661e-005 0
      CHANNELS 3 Zrotation Xrotation Yrotation
      JOINT Spine2
      {
        OFFSET 11.9445 1.14441e-005 0
        CHANNELS 3 Zrotation Xrotation Yrotation
        JOINT Spine3
        {
          OFFSET 14.7254 4.19617e-005 0
          CHANNELS 3 Zrotation Xrotation Yrotation
          JOINT Spine4
          {
            OFFSET 10.9679 0 0
            CHANNELS 3 Zrotation Xrotation Yrotation
            JOINT RightShoulder
            {
              OFFSET 2.46616 -1.6653 3.69651
              CHANNELS 3 Zrotation Xrotation Yrotation
              JOINT RightArm
              {
                OFFSET 13.0012 0 0
                CHANNELS 3 Zrotation Xrotation Yrotation
                JOINT RightForeArm
                {
                  OFFSET 28.7848 1.62311e-005 0
                  CHANNELS 3 Zrotation Xrotation Yrotation
                  JOINT RightHand
                  {
                    OFFSET 26.5688 1.62095e-005 0
                    CHANNELS 3 Zrotation Xrotation Yrotation
                    End Site
                    {
                      OFFSET 0 0 0
                    }
                  }
                }
              }
            }
            JOINT LeftShoulder
            {
              OFFSET 2.38034 -1.29275 -3.7523
              CHANNELS 3 Zrotation Xrotation Yrotation
              JOINT LeftArm
              {
                OFFSET 16.3182 6.07031e-005 0
                CHANNELS 3 Zrotation Xrotation Yrotation
                JOINT LeftForeArm
                {
                  OFFSET 27.0901 0 0
                  CHANNELS 3 Zrotation Xrotation Yrotation
                  JOINT LeftHand
                  {
                    OFFSET 24.5451 1.51738e-005 0
                    CHANNELS 3 Zrotation Xrotation Yrotation
                    End Site
                    {
                      OFFSET 0 0 0
                    }
                  }
                }
              }
            }
            JOINT Neck
            {
              OFFSET 5.0226 -0.0266342 0
              CHANNELS 3 Zrotation Xrotation Yrotation
              JOINT Head
              {
                OFFSET 6.69364 2.86102e-005 0
                CHANNELS 3 Zrotation Xrotation Yrotation
                End Site
                {
                  OFFSET 0 0 0
                }
              }
            }
          }
        }
      }
    }
  }
}
MOTION
Frames:	15
Frame Time:	0.0416667
-7.56072 80.423 -7.47718 21.913 -77.1429 23.0334 -172.64 55.5504 82.7999 -68.464 5.61127 0.379572 68.8646 15.4641 8.21799 50.3043 9.21311 3.0633 159.215 55.0171 95.9388 -66.82 -16.3087 5.94008 67.7629 -18.1426 -8.77187 38.62 -13.0156 0.121777 0.418752 13.7873 -90.776 -0.699916 0.55297 -1.4746 -12.3716 0.487543 -1.49752 -34.9026 0.970554 -1.2403 -14.89 0.97055 -1.24031 96.3765 -18.9572 -96.4771 15.1428 15.154 -82.3849 5.81825 24.3164 -5.9045 -5.58167 0.084879 -7.68195 -90.7207 -32.3812 72.789 -26.0593 -3.57714 -84.5579 -0.688535 -6.68278 -0.00106812 -5.82087 0.29096 -14.9356 15.5088 -3.64043 16.9257 16.0046 -9.6552 -9.79737 
-7.57349 82.3464 -6.88813 21.9753 -77.3078 23.1342 -173.405 52.7913 84.1493 -64.5029 6.45117 -0.196516 68.534 14.5754 7.76385 48.6171 8.42665 2.72671 161.655 52.1655 94.4889 -62.4293 -15.8954 6.12262 66.957 -16.7905 -8.87244 38.2589 -12.5888 -0.131634 0.352272 13.215 -90.7223 0.44426 0.433614 -1.38704 -11.2274 0.372155 -1.40479 -33.7585 0.830408 -1.19263 -13.7458 0.830408 -1.19266 95.5915 -22.3995 -97.3767 13.9316 11.5314 -76.6324 7.94922 22.9222 -11.1462 -5.75586 0.105054 -8.02416 -91.0666 -35.9552 73.328 -26.7798 -2.45429 -78.6364 -2.80563 -1.99307 0.180786 -6.41433 0.31442 -15.4822 17.5425 -3.23786 17.1168 16.2608 -9.60906 -9.74918 
-7.48567 84.2394 -6.1872 25.4708 -77.0689 27.351 -175.769 50.0956 85.9572 -60.4674 6.27113 -0.0257673 68.3706 13.5757 6.59267 46.8028 7.65197 2.85579 163.355 48.9318 93.7671 -57.8871 -14.5206 6.38815 66.3294 -15.1632 -8.23144 37.9541 -12.251 -0.487963 0.268609 12.6295 -90.758 1.61403 0.246177 -1.47075 -10.0577 0.181215 -1.48019 -32.5874 0.67678 -1.32883 -12.5747 0.676782 -1.32883 95.0441 -26.4933 -97.4971 12.5979 7.31446 -71.1271 8.85493 19.1468 -16.3827 -4.46849 0.108584 -9.13862 -90.7742 -38.0224 74.4724 -27.1846 -1.71977 -72.3389 -4.95154 1.14987 -2.64012 -5.63784 0.241649 -15.9838 21.487 -2.66946 15.4548 14.0913 -8.7507 -8.72127 
-7.4216 86.2216 -5.26425 30.5171 -78.076 32.736 -177.461 45.6355 87.3023 -56.0698 6.5132 0.19829 67.8786 12.5321 6.1983 45.511 7.03252 2.35513 165.072 44.2443 92.7838 -53.219 -13.3431 6.34921 65.9169 -13.8067 -7.49515 37.3228 -11.3597 -0.173583 0.200207 12.1546 -90.7867 2.56277 0.0923152 -1.53447 -9.10907 0.0246972 -1.53704 -31.6377 0.549171 -1.4358 -11.625 0.549172 -1.43583 94.4212 -30.2869 -97.8275 11.4423 3.43783 -64.0572 9.816 17.1519 -23.4352 -3.86299 0.0890933 -9.21705 -90.3467 -40.7387 75.9582 -26.4805 -0.438873 -66.0973 -7.84062 1.39652 -6.40556 -5.57972 0.237882 -16.06 23.9123 -2.39801 13.2449 12.4667 -7.63673 -6.5245 
-7.40672 88.0125 -4.12973 34.0395 -79.1687 36.5884 -178.41 41.2654 88.2768 -51.8983 6.05366 0.442663 67.698 11.4683 5.21879 44.1309 6.41251 2.05561 166.992 39.601 92.3257 -48.6346 -12.0453 5.92435 65.5112 -12.6905 -6.73675 36.3706 -10.1775 -0.721984 0.167997 11.6293 -90.7818 3.6127 0.0230987 -1.53016 -8.05916 -0.0442529 -1.52969 -30.5876 0.481854 -1.4525 -10.5749 0.481856 -1.4525 93.8819 -34.6443 -97.8222 11.0985 0.322313 -57.6116 9.77483 16.0986 -28.6529 -1.08587 -0.0103482 -9.95536 -89.9368 -43.2176 77.2686 -25.5394 0.529965 -59.2042 -10.5016 1.04944 -11.116 -5.43756 0.230695 -16.3404 27.1464 -1.53656 12.2605 8.75098 -6.52027 -5.63785 
-7.47555 89.5235 -2.96145 35.0386 -80.1632 36.1857 -178.1 37.0982 87.5483 -47.3899 6.21216 -0.14461 66.944 10.4794 4.96969 42.9102 5.85354 1.61467 169.086 36.411 90.6772 -45.4273 -11.3221 4.88255 65.4892 -11.6493 -5.81797 35.8831 -9.51012 -0.609771 0.0837932 11.0282 -90.5669 4.8161 -0.0649575 -1.11256 -6.85532 -0.113859 -1.10863 -29.3869 0.272398 -1.08065 -9.3742 0.272397 -1.08066 93.5919 -38.9632 -97.3892 11.0254 -2.30234 -51.3904 9.55842 15.3532 -33.4648 0.913695 -0.098626 -10.4143 -89.5288 -44.8314 78.3053 -24.9294 1.88021 -52.2317 -12.9321 0.581373 -15.9518 -4.0852 0.0888432 -16.3671 27.2135 -1.22284 12.1265 7.088 -6.0984 -5.53084 
-7.34602 91.1308 -1.64125 43.9733 -82.247 45.2612 -179.126 31.2737 87.9334 -42.9721 4.9396 0.598614 66.7673 9.45329 4.23426 41.9558 5.44361 1.50329 170.328 30.5764 90.5374 -41.1161 -9.28844 3.98766 65.6652 -10.9105 -3.82132 34.9471 -8.26274 -0.648812 0.0951402 10.6486 -90.5517 5.57519 -0.0398398 -1.08298 -6.09619 -0.0874603 -1.08017 -28.6279 0.287455 -1.0449 -8.61527 0.287461 -1.04489 94.074 -40.238 -96.2729 14.2785 -4.90242 -45.4614 9.67495 14.9263 -38.2561 2.84352 -0.182828 -10.2237 -89.0836 -46.4708 79.3692 -23.0259 3.40188 -46.3875 -15.5576 0.682051 -20.4556 -1.8337 -0.142902 -15.4728 27.0911 -1.01034 11.8212 6.57817 -5.69053 -4.77306 
-7.27341 92.4702 -0.217397 53.9223 -84.2515 55.2374 -179.19 25.8791 88.178 -38.8727 3.42442 0.957977 66.9263 8.64141 2.7598 40.5769 4.86825 1.56949 171.393 25.1798 90.5163 -36.8775 -8.35681 3.10937 65.5293 -9.98611 -2.48939 34.3771 -7.50465 -0.707565 0.13361 10.2647 -90.4904 6.34386 0.0593121 -0.967471 -5.32745 0.0166783 -0.969148 -27.86 0.347328 -0.904928 -7.84737 0.347328 -0.904916 94.2722 -42.0984 -95.576 15.2729 -7.55326 -39.8465 9.92127 14.6553 -43.1513 1.02937 -0.0954414 -9.87602 -88.9496 -47.4485 79.7834 -21.9689 4.34275 -40.7661 -16.5272 1.51173 -24.2773 -3.05786 -0.0216597 -15.7605 29.0887 -0.624637 11.4863 2.72032 -5.23187 -4.44429 
-7.33907 93.4834 1.0742 60.63 -85.0021 61.7053 -179.413 22.0734 88.0919 -35.0621 2.96185 1.23171 66.5116 8.01189 2.25284 39.7616 4.53301 1.72194 172.238 21.8222 90.4718 -33.804 -6.81912 2.25827 65.5903 -8.8653 -1.17907 33.9714 -6.92542 -0.297545 0.0580748 9.74355 -90.3935 7.38588 -0.0540976 -0.77349 -4.2853 -0.0880848 -0.770371 -26.8187 0.18086 -0.753992 -6.80601 0.180864 -0.753991 94.4094 -43.9384 -95.0152 15.6353 -10.3832 -35.0406 8.8819 14.1296 -47.1946 2.82159 -0.164663 -9.60703 -87.9996 -48.2537 81.402 -21.2759 5.78094 -35.6808 -17.6591 1.24793 -27.9379 -3.18321 -0.00643769 -16.1459 30.3737 -0.445119 8.70322 -1.2948 -3.94771 -1.47451 
-7.24516 94.2465 2.17376 72.4403 -85.8565 73.6831 -179.556 18.5276 88.2178 -32.0003 2.52451 1.63733 66.054 7.43129 2.33811 39.669 4.45127 0.863426 172.737 18.2698 90.6462 -30.788 -6.90108 1.7521 65.3768 -8.18141 -0.747314 33.4414 -6.23712 -0.553096 -0.00480076 9.25627 -90.3526 8.3603 -0.164964 -0.686793 -3.31083 -0.19503 -0.67887 -25.8445 0.0490613 -0.704622 -5.83187 0.0490645 -0.704628 94.2904 -45.5684 -94.9327 15.7278 -12.9439 -30.3017 9.0435 14.6047 -51.8576 3.88601 -0.137141 -7.9114 -86.9677 -49.3332 83.1648 -20.2297 7.4316 -30.4467 -19.5913 -0.241986 -32.6551 -3.23708 -0.0068729 -15.4983 26.8379 -0.487716 8.49079 -1.1931 -3.62058 -2.49209 
-7.3066 94.8696 3.19331 82.6278 -86.5112 83.6116 -179.769 15.4645 87.9412 -28.9884 1.70319 1.95591 65.8387 7.00774 1.6906 38.623 4.04521 1.53496 173.1 15.5825 90.5076 -28.3752 -6.6474 1.23592 65.4966 -7.59662 -0.00376105 32.8141 -5.37883 -0.25299 9.24053e-005 8.75001 -90.2979 9.37313 -0.133633 -0.580402 -2.29794 -0.15905 -0.573966 -24.8321 0.0469634 -0.593742 -4.81941 0.0469783 -0.593723 94.5257 -47.0323 -94.312 15.8534 -15.5862 -25.5199 8.72146 14.497 -56.7686 2.86835 -0.0913328 -7.18503 -86.472 -50.274 84.0637 -20.1099 8.61554 -25.9481 -20.294 -0.483777 -36.2344 -3.6492 0.0262234 -14.8205 23.396 -0.812165 7.69978 -2.18277 -3.39804 -2.42398 
-7.33655 95.6005 4.35541 103.97 -87.3071 105.23 -179.502 11.8201 88.2368 -25.6177 1.89052 2.23846 65.2893 6.08133 2.25403 38.1591 3.8214 0.695085 173.534 11.7723 90.8207 -24.5461 -7.14918 0.766265 64.9507 -6.86488 0.329168 32.4341 -4.88022 -0.424124 0.0434349 8.30716 -90.2766 10.2593 -0.039823 -0.546929 -1.41176 -0.0638671 -0.544653 -23.946 0.126386 -0.533615 -3.93339 0.126388 -0.533621 94.2058 -48.8586 -94.5301 16.2797 -16.911 -20.8663 9.19584 14.7464 -61.3978 3.17603 -0.0824658 -6.76685 -85.5826 -50.7724 85.4683 -20.8004 9.67829 -21.5735 -21.0028 -1.07592 -39.6959 -3.7516 0.0195006 -13.4817 20.3552 -0.881894 6.43166 -4.11629 -2.83376 -2.56036 
-7.42137 96.3026 5.28999 122.882 -87.5625 123.431 -179.176 8.13309 87.8531 -20.9945 1.95754 1.96092 64.6281 5.09295 1.82857 36.2658 3.03859 0.423647 173.642 8.93892 90.234 -21.3451 -6.95569 0.187364 65.1857 -6.06078 1.62128 31.2905 -3.34316 -0.12442 0.0674013 7.90872 -90.1831 11.0562 0.0492717 -0.368751 -0.614792 0.0329971 -0.37057 -23.1496 0.157817 -0.336901 -3.13693 0.157822 -0.336893 94.15 -50.736 -94.3217 16.7379 -17.8981 -16.5098 8.66269 14.1778 -66.1757 2.55807 -0.0335812 -5.19635 -85.0284 -51.8384 86.4329 -21.5423 9.84793 -17.9318 -21.212 -1.36364 -42.1054 -4.2652 0.0808832 -14.6651 18.3276 -1.08263 4.84811 -6.62113 -2.4149 -1.74343 
-7.50259 96.9109 6.10952 139.445 -87.2957 139.947 -178.556 4.67039 88.1893 -16.8505 2.34534 1.76871 64.4032 4.23666 0.79992 33.822 2.03691 0.56895 173.447 5.72599 90.0925 -17.5848 -7.43263 0.0395651 64.9311 -4.89129 2.21887 30.2226 -1.92034 0.139677 0.0951682 7.62055 -90.1777 11.6328 0.106086 -0.365079 -0.0382413 0.0899239 -0.369398 -22.5731 0.210892 -0.316321 -2.56044 0.210907 -0.31631 93.6322 -52.4115 -94.8466 17.9056 -17.2409 -11.8461 8.92269 13.3375 -70.9896 1.21476 -0.0203035 -4.71248 -84.8551 -54.0455 86.9548 -20.344 10.6681 -14.6214 -22.5487 -2.40184 -45.2877 -4.53559 0.108494 -14.945 17.5321 -1.26124 3.96045 -9.25455 -2.25611 -1.94818 
-7.5725 97.289 6.6691 147.286 -87.0381 147.893 -177.712 2.30476 88.7437 -13.8758 2.91051 1.36568 64.554 3.82564 0.157424 31.4151 1.05804 0.311473 173.274 2.9514 90.0208 -14.0012 -7.86402 0.0239333 64.6581 -4.13275 2.31476 29.6311 -1.14388 0.6126 0.104889 7.40321 -90.1883 12.0675 0.119602 -0.388853 0.396498 0.102374 -0.393751 -22.1383 0.23094 -0.334933 -2.1257 0.230946 -0.334927 92.629 -53.83 -96.1046 19.074 -15.6303 -8.06553 10.7532 12.5596 -74.5347 -1.19163 -0.0316384 -4.2707 -84.9353 -55.7032 87.0341 -20.7559 10.8507 -10.74 -23.2209 -3.1872 -49.4171 -3.35809 -0.0129297 -13.3744 16.1783 -1.32017 3.29853 -9.44647 -2.0254 -2.78181 
